<svg width="27" height="27" viewBox="0 0 27 27" fill="black" xmlns="http://www.w3.org/2000/svg">
<path d="M21.6 21.6C22.3161 21.6 23.0028 21.8845 23.5092 22.3908C24.0155 22.8972 24.3 23.5839 24.3 24.3C24.3 25.0161 24.0155 25.7028 23.5092 26.2092C23.0028 26.7155 22.3161 27 21.6 27C20.8839 27 20.1972 26.7155 19.6908 26.2092C19.1845 25.7028 18.9 25.0161 18.9 24.3C18.9 22.8015 20.1015 21.6 21.6 21.6ZM0 0H4.4145L5.6835 2.7H25.65C26.008 2.7 26.3514 2.84223 26.6046 3.09541C26.8578 3.34858 27 3.69196 27 4.05C27 4.2795 26.9325 4.509 26.838 4.725L22.005 13.4595C21.546 14.283 20.655 14.85 19.6425 14.85H9.585L8.37 17.0505L8.3295 17.2125C8.3295 17.302 8.36506 17.3879 8.42835 17.4511C8.49164 17.5144 8.57749 17.55 8.667 17.55H24.3V20.25H8.1C7.38392 20.25 6.69716 19.9655 6.19081 19.4592C5.68446 18.9528 5.4 18.2661 5.4 17.55C5.4 17.0775 5.5215 16.632 5.724 16.254L7.56 12.9465L2.7 2.7H0V0ZM8.1 21.6C8.81608 21.6 9.50284 21.8845 10.0092 22.3908C10.5155 22.8972 10.8 23.5839 10.8 24.3C10.8 25.0161 10.5155 25.7028 10.0092 26.2092C9.50284 26.7155 8.81608 27 8.1 27C7.38392 27 6.69716 26.7155 6.19081 26.2092C5.68446 25.7028 5.4 25.0161 5.4 24.3C5.4 22.8015 6.6015 21.6 8.1 21.6ZM20.25 12.15L24.003 5.4H6.939L10.125 12.15H20.25Z" fill="#E7E7E7"/>
</svg>
