<svg width="27" height="27" viewBox="0 0 27 27" fill="black" xmlns="http://www.w3.org/2000/svg">
<path d="M19.7982 17.4125H18.5471L18.1037 16.9852C19.0934 15.836 19.8168 14.4825 20.2219 13.0214C20.6271 11.5602 20.7042 10.0276 20.4475 8.53329C19.7032 4.13325 16.0291 0.61955 11.5948 0.081416C10.0358 -0.11569 8.45244 0.0462341 6.96574 0.554798C5.47905 1.06336 4.12846 1.90509 3.01733 3.01556C1.90621 4.12604 1.06399 5.47584 0.555124 6.96166C0.0462612 8.44749 -0.115758 10.03 0.0814638 11.588C0.619914 16.0197 4.13568 19.6917 8.5383 20.4356C10.0335 20.692 11.567 20.6151 13.029 20.2101C14.491 19.8051 15.8453 19.0822 16.9951 18.0931L17.4227 18.5363V19.7866L24.1533 26.5133C24.8027 27.1622 25.8637 27.1622 26.513 26.5133C27.1623 25.8644 27.1623 24.8039 26.513 24.155L19.7982 17.4125ZM10.2962 17.4125C6.35282 17.4125 3.16963 14.2312 3.16963 10.2901C3.16963 6.3491 6.35282 3.16777 10.2962 3.16777C14.2395 3.16777 17.4227 6.3491 17.4227 10.2901C17.4227 14.2312 14.2395 17.4125 10.2962 17.4125Z" fill="#E7E7E7"/>
</svg>
